# xmcd
#
# Track frame offsets:
#	150
#	19097
#	37602
#	57445
#	77697
#	99417
#	120327
#	136840
#	156760
#	177645
#	196162
#	210060
#	216955
#	234487
#	267865
#	298902
#
# Disc length: 4593 seconds
#
# Revision: 0
# Processed by: cddbd v1.5.1PL0 Copyright (c) Steve Scherf et al.
# Submitted via: dBpowerAMP V4.0
#
DISCID=d311ef10
DTITLE=Shania Twain - The Woman In Me
DYEAR=2000
DGENRE=Country
TTITLE0=Home Ain't Where His Heart Is Anymore
TTITLE1=Any Man Of Mine
TTITLE2=Whose Bed Have Your Boots Been Under? 
TTITLE3=(If You're Not In It For Love) I'm Outta Here
TTITLE4=The Woman In Me
TTITLE5=Is There Life After Love?
TTITLE6=If It Don't Take Two
TTITLE7=You Win My Love
TTITLE8=Raining On Our Love
TTITLE9=Leaving Is The Only Way Out
TTITLE10=No One Needs To Know
TTITLE11=God Bless The Child
TTITLE12=You Win My Love (remix edit)
TTITLE13=Medley
TTITLE14=(If You're Not In It For Love) I'm Outta Here (remix)
TTITLE15=DATA
EXTD=
EXTT0=
EXTT1=
EXTT2=
EXTT3=
EXTT4=
EXTT5=
EXTT6=
EXTT7=
EXTT8=
EXTT9=
EXTT10=
EXTT11=
EXTT12=
EXTT13=
EXTT14=
EXTT15=
PLAYORDER=
